<mxfile host="app.diagrams.net" agent="Mozilla/5.0 (Windows NT 10.0; Win64; x64) AppleWebKit/537.36 (KHTML, like Gecko) Chrome/129.0.0.0 Safari/537.36" version="24.7.17">
  <diagram name="Halaman-1" id="4D2cCXIP7qtbIeVVaaAb">
    <mxGraphModel dx="1050" dy="557" grid="1" gridSize="10" guides="1" tooltips="1" connect="1" arrows="1" fold="1" page="1" pageScale="1" pageWidth="827" pageHeight="1169" math="0" shadow="0">
      <root>
        <mxCell id="0" />
        <mxCell id="1" parent="0" />
        <mxCell id="WXnc0OmD0nLQzLrBxxhn-2" value="Define Pins for Seven Segment" style="whiteSpace=wrap;strokeWidth=2;" vertex="1" parent="1">
          <mxGeometry x="375" y="153" width="211" height="66" as="geometry" />
        </mxCell>
        <mxCell id="WXnc0OmD0nLQzLrBxxhn-3" value="Define Binary Numbers for 0-9" style="whiteSpace=wrap;strokeWidth=2;" vertex="1" parent="1">
          <mxGeometry x="356" y="269" width="250" height="66" as="geometry" />
        </mxCell>
        <mxCell id="WXnc0OmD0nLQzLrBxxhn-4" value="Setup Function" style="whiteSpace=wrap;strokeWidth=2;" vertex="1" parent="1">
          <mxGeometry x="397" y="385" width="167" height="48" as="geometry" />
        </mxCell>
        <mxCell id="WXnc0OmD0nLQzLrBxxhn-5" value="Set Pin Modes to OUTPUT" style="whiteSpace=wrap;strokeWidth=2;" vertex="1" parent="1">
          <mxGeometry x="360" y="484" width="242" height="48" as="geometry" />
        </mxCell>
        <mxCell id="WXnc0OmD0nLQzLrBxxhn-6" value="Loop Function" style="whiteSpace=wrap;strokeWidth=2;" vertex="1" parent="1">
          <mxGeometry x="400" y="582" width="161" height="48" as="geometry" />
        </mxCell>
        <mxCell id="WXnc0OmD0nLQzLrBxxhn-7" value="For Loop from 20 to 0" style="whiteSpace=wrap;strokeWidth=2;" vertex="1" parent="1">
          <mxGeometry x="373" y="681" width="216" height="48" as="geometry" />
        </mxCell>
        <mxCell id="WXnc0OmD0nLQzLrBxxhn-8" value="Calculate Tens Digit" style="whiteSpace=wrap;strokeWidth=2;" vertex="1" parent="1">
          <mxGeometry x="157" y="779" width="202" height="48" as="geometry" />
        </mxCell>
        <mxCell id="WXnc0OmD0nLQzLrBxxhn-9" value="Calculate Ones Digit" style="whiteSpace=wrap;strokeWidth=2;" vertex="1" parent="1">
          <mxGeometry x="155" y="877" width="205" height="48" as="geometry" />
        </mxCell>
        <mxCell id="WXnc0OmD0nLQzLrBxxhn-10" value="Display Tens Digit on Seven Segment" style="whiteSpace=wrap;strokeWidth=2;" vertex="1" parent="1">
          <mxGeometry x="131" y="976" width="253" height="66" as="geometry" />
        </mxCell>
        <mxCell id="WXnc0OmD0nLQzLrBxxhn-11" value="Display Ones Digit on Seven Segment" style="whiteSpace=wrap;strokeWidth=2;" vertex="1" parent="1">
          <mxGeometry x="129" y="1092" width="257" height="66" as="geometry" />
        </mxCell>
        <mxCell id="WXnc0OmD0nLQzLrBxxhn-12" value="Delay for 1 Second" style="whiteSpace=wrap;strokeWidth=2;" vertex="1" parent="1">
          <mxGeometry x="326" y="1208" width="194" height="48" as="geometry" />
        </mxCell>
        <mxCell id="WXnc0OmD0nLQzLrBxxhn-13" value="End of Loop" style="whiteSpace=wrap;strokeWidth=2;" vertex="1" parent="1">
          <mxGeometry x="408" y="779" width="145" height="48" as="geometry" />
        </mxCell>
        <mxCell id="WXnc0OmD0nLQzLrBxxhn-15" value="" style="curved=1;startArrow=none;endArrow=block;exitX=0.5;exitY=1.01;entryX=0.5;entryY=0.01;rounded=0;" edge="1" parent="1" target="WXnc0OmD0nLQzLrBxxhn-2">
          <mxGeometry relative="1" as="geometry">
            <Array as="points" />
            <mxPoint x="480.5" y="103" as="sourcePoint" />
          </mxGeometry>
        </mxCell>
        <mxCell id="WXnc0OmD0nLQzLrBxxhn-16" value="" style="curved=1;startArrow=none;endArrow=block;exitX=0.5;exitY=1.01;entryX=0.5;entryY=0.01;rounded=0;" edge="1" parent="1" source="WXnc0OmD0nLQzLrBxxhn-2" target="WXnc0OmD0nLQzLrBxxhn-3">
          <mxGeometry relative="1" as="geometry">
            <Array as="points" />
          </mxGeometry>
        </mxCell>
        <mxCell id="WXnc0OmD0nLQzLrBxxhn-17" value="" style="curved=1;startArrow=none;endArrow=block;exitX=0.5;exitY=1.01;entryX=0.5;entryY=0.01;rounded=0;" edge="1" parent="1" source="WXnc0OmD0nLQzLrBxxhn-3" target="WXnc0OmD0nLQzLrBxxhn-4">
          <mxGeometry relative="1" as="geometry">
            <Array as="points" />
          </mxGeometry>
        </mxCell>
        <mxCell id="WXnc0OmD0nLQzLrBxxhn-18" value="" style="curved=1;startArrow=none;endArrow=block;exitX=0.5;exitY=1.02;entryX=0.5;entryY=0;rounded=0;" edge="1" parent="1" source="WXnc0OmD0nLQzLrBxxhn-4" target="WXnc0OmD0nLQzLrBxxhn-5">
          <mxGeometry relative="1" as="geometry">
            <Array as="points" />
          </mxGeometry>
        </mxCell>
        <mxCell id="WXnc0OmD0nLQzLrBxxhn-19" value="" style="curved=1;startArrow=none;endArrow=block;exitX=0.5;exitY=1;entryX=0.5;entryY=0;rounded=0;" edge="1" parent="1" source="WXnc0OmD0nLQzLrBxxhn-5" target="WXnc0OmD0nLQzLrBxxhn-6">
          <mxGeometry relative="1" as="geometry">
            <Array as="points" />
          </mxGeometry>
        </mxCell>
        <mxCell id="WXnc0OmD0nLQzLrBxxhn-20" value="" style="curved=1;startArrow=none;endArrow=block;exitX=0.5;exitY=1.01;entryX=0.5;entryY=-0.01;rounded=0;" edge="1" parent="1" source="WXnc0OmD0nLQzLrBxxhn-6" target="WXnc0OmD0nLQzLrBxxhn-7">
          <mxGeometry relative="1" as="geometry">
            <Array as="points" />
          </mxGeometry>
        </mxCell>
        <mxCell id="WXnc0OmD0nLQzLrBxxhn-21" value="" style="curved=1;startArrow=none;endArrow=block;exitX=0;exitY=0.99;entryX=0.5;entryY=0;rounded=0;" edge="1" parent="1" source="WXnc0OmD0nLQzLrBxxhn-7" target="WXnc0OmD0nLQzLrBxxhn-8">
          <mxGeometry relative="1" as="geometry">
            <Array as="points">
              <mxPoint x="258" y="754" />
            </Array>
          </mxGeometry>
        </mxCell>
        <mxCell id="WXnc0OmD0nLQzLrBxxhn-22" value="" style="curved=1;startArrow=none;endArrow=block;exitX=0.5;exitY=1.01;entryX=0.5;entryY=0.01;rounded=0;" edge="1" parent="1" source="WXnc0OmD0nLQzLrBxxhn-8" target="WXnc0OmD0nLQzLrBxxhn-9">
          <mxGeometry relative="1" as="geometry">
            <Array as="points" />
          </mxGeometry>
        </mxCell>
        <mxCell id="WXnc0OmD0nLQzLrBxxhn-23" value="" style="curved=1;startArrow=none;endArrow=block;exitX=0.5;exitY=1.02;entryX=0.5;entryY=0;rounded=0;" edge="1" parent="1" source="WXnc0OmD0nLQzLrBxxhn-9" target="WXnc0OmD0nLQzLrBxxhn-10">
          <mxGeometry relative="1" as="geometry">
            <Array as="points" />
          </mxGeometry>
        </mxCell>
        <mxCell id="WXnc0OmD0nLQzLrBxxhn-24" value="" style="curved=1;startArrow=none;endArrow=block;exitX=0.5;exitY=1;entryX=0.5;entryY=0;rounded=0;" edge="1" parent="1" source="WXnc0OmD0nLQzLrBxxhn-10" target="WXnc0OmD0nLQzLrBxxhn-11">
          <mxGeometry relative="1" as="geometry">
            <Array as="points" />
          </mxGeometry>
        </mxCell>
        <mxCell id="WXnc0OmD0nLQzLrBxxhn-25" value="" style="curved=1;startArrow=none;endArrow=block;exitX=0.5;exitY=1;entryX=0.08;entryY=0;rounded=0;" edge="1" parent="1" source="WXnc0OmD0nLQzLrBxxhn-11" target="WXnc0OmD0nLQzLrBxxhn-12">
          <mxGeometry relative="1" as="geometry">
            <Array as="points">
              <mxPoint x="258" y="1183" />
            </Array>
          </mxGeometry>
        </mxCell>
        <mxCell id="WXnc0OmD0nLQzLrBxxhn-26" value="" style="curved=1;startArrow=none;endArrow=block;exitX=0.92;exitY=0;entryX=0.74;entryY=1;rounded=0;" edge="1" parent="1" source="WXnc0OmD0nLQzLrBxxhn-12" target="WXnc0OmD0nLQzLrBxxhn-7">
          <mxGeometry relative="1" as="geometry">
            <Array as="points">
              <mxPoint x="588" y="1183" />
              <mxPoint x="588" y="754" />
            </Array>
          </mxGeometry>
        </mxCell>
        <mxCell id="WXnc0OmD0nLQzLrBxxhn-27" value="" style="curved=1;startArrow=none;endArrow=block;exitX=0.5;exitY=1;entryX=0.5;entryY=0;rounded=0;" edge="1" parent="1" source="WXnc0OmD0nLQzLrBxxhn-7" target="WXnc0OmD0nLQzLrBxxhn-13">
          <mxGeometry relative="1" as="geometry">
            <Array as="points" />
          </mxGeometry>
        </mxCell>
        <mxCell id="WXnc0OmD0nLQzLrBxxhn-28" value="" style="curved=1;startArrow=none;endArrow=block;exitX=0.5;exitY=1.01;entryX=0.5;entryY=0;rounded=0;entryDx=0;entryDy=0;" edge="1" parent="1" target="WXnc0OmD0nLQzLrBxxhn-30">
          <mxGeometry relative="1" as="geometry">
            <Array as="points" />
            <mxPoint x="478.5" y="827" as="sourcePoint" />
            <mxPoint x="479" y="877" as="targetPoint" />
          </mxGeometry>
        </mxCell>
        <mxCell id="WXnc0OmD0nLQzLrBxxhn-30" value="Exit" style="ellipse;whiteSpace=wrap;html=1;" vertex="1" parent="1">
          <mxGeometry x="420.5" y="885" width="120" height="80" as="geometry" />
        </mxCell>
        <mxCell id="WXnc0OmD0nLQzLrBxxhn-31" value="Start" style="ellipse;whiteSpace=wrap;html=1;" vertex="1" parent="1">
          <mxGeometry x="420.5" y="25" width="120" height="80" as="geometry" />
        </mxCell>
      </root>
    </mxGraphModel>
  </diagram>
</mxfile>
